<svg width="329" height="257" viewBox="0 0 329 257" fill="none" xmlns="http://www.w3.org/2000/svg">
<path d="M272.592 113.648C272.592 113.648 273.199 69.7661 232.959 71.5858C192.719 73.4056 163.598 39.6358 167.44 23.0529C171.282 6.47 243.879 -5.86389 248.328 5.25761C252.777 16.3791 226.69 56.0146 185.235 67.5419C143.78 79.0692 109.201 34.9836 82.5082 51.3636C55.8151 67.7436 72.8016 114.051 78.4638 133.06C84.126 152.068 105.157 127.398 105.157 127.398" stroke="#333333" stroke-linecap="round" stroke-dasharray="5 5"/>
<path d="M200.779 126.845C200.552 126.811 200.334 126.73 200.139 126.609C199.958 126.487 199.77 126.364 199.596 126.228C199.208 125.921 198.81 125.623 198.415 125.331C198.31 125.266 198.205 125.204 198.094 125.141C197.858 124.989 197.624 124.842 197.396 124.675C197.274 124.586 197.178 124.464 197.056 124.375C196.961 124.302 196.867 124.225 196.772 124.151C196.511 123.993 196.264 123.812 196.036 123.611C195.77 123.353 195.489 123.111 195.195 122.885C194.949 122.707 194.716 122.51 194.499 122.297C194.321 122.114 194.132 121.944 193.932 121.787C193.64 121.607 193.361 121.406 193.098 121.187C192.934 121.041 192.78 120.883 192.638 120.715C192.598 120.672 192.553 120.633 192.506 120.598C192.241 120.435 191.994 120.245 191.77 120.031C191.581 119.831 191.388 119.628 191.2 119.428C190.968 119.176 190.727 118.936 190.476 118.702C190.224 118.469 189.968 118.251 189.731 118.012C189.258 117.531 188.793 117.038 188.305 116.569C188.054 116.326 187.756 116.122 187.478 115.904C187.242 115.716 187.003 115.53 186.769 115.335C186.534 115.139 186.307 114.899 186.074 114.684C185.841 114.47 185.616 114.189 185.349 113.974C185.083 113.774 184.84 113.546 184.624 113.293C184.323 112.926 184.024 112.557 183.728 112.193C183.467 111.889 183.185 111.601 182.902 111.323C182.762 111.187 182.626 111.047 182.491 110.903C182.459 110.891 182.428 110.877 182.399 110.861L182.263 110.779C182.185 110.735 182.112 110.674 182.037 110.627C181.897 110.531 181.757 110.431 181.617 110.335C181.319 110.141 181.012 109.963 180.697 109.802C180.422 109.665 180.127 109.566 179.842 109.447C179.667 109.375 179.502 109.282 179.35 109.169C179.276 109.112 179.21 109.044 179.157 108.967L179.129 108.958C178.878 108.885 178.633 108.81 178.393 108.715C178.194 108.637 177.985 108.564 177.786 108.482C177.586 108.4 177.398 108.348 177.21 108.271C177.005 108.186 176.81 108.083 176.604 108.003C176.201 107.906 175.787 107.891 175.381 107.81C174.976 107.729 174.572 107.651 174.169 107.576C173.726 107.491 173.278 107.436 172.831 107.387C172.601 107.358 172.376 107.34 172.151 107.303C171.951 107.274 171.751 107.237 171.547 107.222C169.851 107.1 168.144 107.117 166.444 107.141L166.154 107.148H166.206H166.134H166.124C165.703 107.159 165.276 107.168 164.856 107.178C164.926 107.178 164.992 107.178 165.066 107.171C164.261 107.19 163.455 107.204 162.648 107.204C161.971 107.204 161.294 107.204 160.617 107.204C159.235 107.204 157.848 107.222 156.466 107.248C156.532 107.248 156.598 107.248 156.664 107.241C155.053 107.278 153.44 107.356 151.828 107.356C150.346 107.356 148.867 107.356 147.389 107.378C147.005 107.386 146.617 107.393 146.233 107.407C145.685 107.426 145.134 107.447 144.587 107.456C144.107 107.456 143.63 107.448 143.149 107.444C142.168 107.432 141.185 107.381 140.206 107.366H139.995C139.622 107.403 139.249 107.436 138.874 107.464C137.927 107.53 136.981 107.586 136.035 107.634C135.155 107.683 134.274 107.739 133.392 107.777C132.43 107.818 131.464 107.83 130.503 107.849H130.595C130.326 107.849 130.055 107.855 129.785 107.867C128.839 107.896 127.903 107.955 126.96 108.004C126.54 108.024 126.117 108.044 125.693 108.065L123.695 108.295C122.733 108.405 121.768 108.524 120.803 108.625C119.802 108.73 118.799 108.821 117.797 108.92C115.875 109.108 113.959 109.356 112.05 109.656C111.075 109.807 110.099 109.963 109.115 110.069C108.131 110.175 107.159 110.251 106.171 110.329C105.184 110.407 104.174 110.505 103.179 110.644C102.185 110.783 101.164 110.935 100.152 111.065C99.2529 111.182 98.3572 111.297 97.4552 111.401C96.4533 111.519 95.4515 111.661 94.4485 111.778C92.5741 112.003 90.6891 112.1 88.8137 112.293C87.8223 112.398 86.832 112.496 85.8417 112.585C85.3781 112.625 84.9124 112.633 84.4551 112.677C84.0345 112.714 83.6487 112.874 83.2303 112.921C82.8119 112.969 82.3893 112.983 81.9688 113.036C81.5251 113.088 81.0846 113.169 80.6452 113.246C80.4258 113.287 80.2068 113.334 79.9882 113.385C78.1758 114.358 76.3476 115.3 74.5509 116.303C72.3885 117.512 70.3101 118.861 68.2748 120.273C66.9936 121.168 65.8085 122.193 64.7383 123.332C64.6142 123.481 64.4923 123.634 64.3745 123.788C64.3658 124.305 64.2085 124.808 63.9214 125.238C63.7393 125.544 63.4728 125.79 63.1539 125.949C62.8351 126.107 62.4774 126.17 62.1237 126.13C61.7982 126.05 61.4813 125.938 61.1776 125.796C59.8309 125.179 58.541 124.465 57.2574 123.737C55.8234 122.923 54.3916 122.103 52.9766 121.263C50.074 119.544 47.1745 117.82 44.3161 116.024C41.4577 114.227 38.655 112.289 35.9332 110.274C33.238 108.312 30.6564 106.198 28.201 103.943C27.0373 102.857 25.8882 101.751 24.7255 100.663C23.5943 99.612 22.3853 98.6469 21.2563 97.5904C20.0146 96.4605 18.9102 95.1885 17.9657 93.8005C17.4442 93.0245 17.0832 92.152 16.904 91.2343C16.8576 90.9837 16.8371 90.729 16.843 90.4743C16.8108 90.4343 16.781 90.3926 16.7536 90.3492C16.5473 90.0161 16.4723 89.618 16.5434 89.2327C16.5905 88.9217 16.6976 88.6229 16.8587 88.3528C16.9718 88.1899 17.098 88.0366 17.2362 87.8944C17.3613 87.7651 17.4948 87.639 17.6167 87.5054C17.8901 87.2216 18.156 86.9335 18.4262 86.6476C18.9364 86.0976 19.4955 85.5951 20.0967 85.1464C21.8371 83.9569 23.6916 82.9437 25.6327 82.1218C27.5555 81.2314 29.5225 80.4534 31.4894 79.6734C32.4734 79.2855 33.4648 78.9154 34.4593 78.5559C35.4054 78.2121 36.3453 77.861 37.2978 77.5319C39.2474 76.7798 41.2782 76.2576 43.3489 75.976C44.3287 75.8709 45.3127 75.8247 46.2925 75.7984C46.6415 75.7879 46.9906 75.7837 47.3438 75.7837C48.0103 75.7837 48.6758 75.7994 49.3412 75.8184C49.5441 75.7984 49.7481 75.7847 49.9531 75.7795C50.5071 75.7616 51.0622 75.7605 51.6215 75.7542H51.7876C52.8451 75.7132 53.9017 75.5944 54.9603 75.5724C55.5564 75.5576 56.1472 75.565 56.7401 75.565C57.2721 75.565 57.8051 75.5356 58.337 75.5429C58.869 75.5503 59.3883 75.5839 59.9045 75.5944C60.4207 75.6049 60.9558 75.6018 61.4867 75.6018C62.5779 75.6018 63.6733 75.5839 64.7667 75.5618C64.6889 75.5618 64.6111 75.5618 64.5343 75.5618C65.1399 75.5482 65.7454 75.5377 66.3541 75.5282H66.3394C67.5095 75.503 68.6827 75.4388 69.8549 75.3989C70.5771 75.3737 71.3004 75.3547 72.0247 75.3547C72.4 75.3547 72.7774 75.3547 73.1527 75.3726C74.1294 75.402 75.1092 75.4946 76.0742 75.6165C76.581 75.6785 77.0845 75.7721 77.587 75.853C78.0896 75.934 78.5963 75.9813 79.103 76.0234C79.4604 76.0559 79.8326 76.0749 80.1921 76.1358L80.3845 76.1485C82.2369 76.2778 84.0861 76.4933 85.9311 76.6993C86.8737 76.8031 87.8129 76.9166 88.7485 77.0399C89.7504 77.1724 90.7522 77.3164 91.7583 77.4205C92.2472 77.4689 92.736 77.513 93.2185 77.5719C93.7221 77.6318 94.2246 77.7012 94.7271 77.7758C95.607 77.9051 96.487 78.0355 97.3711 78.1417C98.2731 78.2468 99.1782 78.3519 100.077 78.4865C100.976 78.6211 101.893 78.7672 102.81 78.8891C103.784 79.0153 104.764 79.0552 105.743 79.1299C106.723 79.2045 107.685 79.3181 108.649 79.46C109.595 79.5956 110.535 79.767 111.475 79.9331C112.415 80.0992 113.367 80.2358 114.314 80.3799C115.234 80.5207 116.152 80.6763 117.072 80.8235C117.992 80.9707 118.899 81.0716 119.817 81.1641C120.763 81.2566 121.709 81.2976 122.655 81.3491C123.524 81.3964 124.386 81.4711 125.251 81.5489C126.116 81.6267 126.996 81.7591 127.87 81.8811C128.34 81.9473 128.816 82.002 129.286 82.0398L129.645 82.0661C129.771 82.0679 129.897 82.0774 130.022 82.0945C130.259 82.1145 130.496 82.1365 130.735 82.1649C131.068 82.2101 131.403 82.2532 131.737 82.3069C131.866 82.3069 131.994 82.3121 132.121 82.3216C132.331 82.3321 132.542 82.3657 132.746 82.3941C133.166 82.454 133.596 82.5161 134.021 82.5602C135.545 82.7011 137.059 82.9335 138.555 83.2562C139.339 83.4328 140.126 83.581 140.921 83.6767C141.797 83.7871 142.67 83.9132 143.539 84.0825C143.939 84.1603 144.334 84.2381 144.733 84.319C145.208 84.4241 145.68 84.482 146.157 84.5629C147.169 84.7416 148.179 84.9508 149.177 85.1811C150.146 85.4029 151.112 85.6363 152.084 85.8276C152.487 85.9085 152.89 85.9937 153.297 86.0526C153.792 86.1272 154.28 86.2187 154.769 86.308C155.189 86.3858 155.616 86.4458 156.038 86.5183C156.515 86.6101 156.99 86.7033 157.461 86.7979C158.407 86.9872 159.354 87.1354 160.289 87.3488C161.18 87.5527 162.061 87.783 162.936 88.0279C164.679 88.2687 166.431 88.4547 168.165 88.7438C169.16 88.9068 170.151 89.0876 171.143 89.2611C171.579 89.3389 172.015 89.3977 172.451 89.464C172.888 89.5302 173.335 89.6154 173.778 89.69C174.703 89.8424 175.631 89.9823 176.56 90.1305C177.439 90.2703 178.32 90.4133 179.2 90.5689C180.057 90.7171 180.923 90.8538 181.781 91.0052C182.24 91.0861 182.701 91.1649 183.16 91.2564C183.637 91.3489 184.106 91.4488 184.592 91.5255C185.046 91.5991 185.501 91.6664 185.958 91.7179C186.439 91.7705 186.919 91.8073 187.405 91.8367C188.358 91.8998 189.316 91.9513 190.27 92.0154C190.747 92.048 191.227 92.0817 191.7 92.1479C192.183 92.2192 192.661 92.3182 193.132 92.4444C194.001 92.6735 194.863 92.9174 195.717 93.195C196.109 93.3243 196.505 93.4494 196.904 93.5608C197.285 93.6659 197.67 93.7606 198.05 93.8762C198.471 93.995 198.891 94.1012 199.312 94.2042C199.807 94.3262 200.291 94.4597 200.783 94.6142C201.245 94.7582 201.703 94.917 202.17 95.0473C202.621 95.1693 203.068 95.2912 203.505 95.451C203.913 95.6056 204.312 95.7832 204.7 95.983C205.128 96.2016 205.521 96.4708 205.941 96.6957C206.175 96.808 206.4 96.9366 206.616 97.0805C206.659 97.112 206.704 97.1436 206.748 97.1783C206.836 97.1636 206.921 97.1446 207.006 97.1215C207.382 96.9743 207.749 96.8037 208.104 96.6106C208.45 96.44 208.805 96.2894 209.169 96.1596C209.612 95.9906 210.067 95.8522 210.53 95.7454C210.981 95.6497 211.432 95.5751 211.887 95.5004C212.791 95.3421 213.704 95.2368 214.62 95.185H214.781H214.942C215.036 95.1801 215.13 95.1777 215.224 95.1777C215.446 95.1776 215.668 95.1896 215.888 95.2134C215.979 95.2239 216.07 95.2345 216.161 95.2481C216.395 95.2551 216.628 95.2723 216.861 95.2996C217.071 95.3249 217.281 95.3522 217.492 95.3911C217.746 95.4401 217.998 95.5023 218.246 95.5772C218.396 95.6192 218.545 95.6634 218.692 95.7128C218.797 95.7422 218.902 95.7734 219.007 95.8064L219.035 95.8148L219.245 95.8558C219.616 95.9265 219.981 96.0213 220.339 96.1396C220.402 96.1617 220.466 96.1848 220.529 96.209C220.697 96.2482 220.863 96.2991 221.024 96.3614C221.111 96.3961 221.195 96.435 221.278 96.4771C221.572 96.546 221.855 96.6546 222.119 96.7998C222.401 96.9577 222.673 97.1333 222.933 97.3255C223.703 97.7807 224.329 98.4429 224.741 99.2367C224.886 99.5946 224.996 99.9662 225.067 100.346C225.134 100.672 225.181 101.001 225.207 101.333C225.216 101.473 225.216 101.613 225.207 101.753C225.236 101.93 225.25 102.108 225.249 102.286C225.247 102.611 225.21 102.935 225.137 103.252C225.101 103.422 225.041 103.589 224.989 103.751C224.927 103.951 224.857 104.143 224.779 104.335C224.648 104.666 224.496 104.988 224.324 105.299C224.219 105.478 224.087 105.64 223.965 105.813L223.892 105.919C223.809 106.094 223.716 106.266 223.618 106.434C223.46 106.703 223.294 106.966 223.132 107.235C222.979 107.486 222.828 107.742 222.662 107.985C222.284 108.535 221.87 109.062 221.441 109.579C221.216 109.857 220.994 110.138 220.75 110.4C220.54 110.625 220.322 110.841 220.1 111.054C219.779 111.357 219.439 111.638 219.082 111.895C218.703 112.189 218.308 112.46 217.898 112.709C217.692 112.831 217.48 112.942 217.262 113.042C217.059 113.136 216.852 113.219 216.641 113.301C216.224 113.473 215.798 113.624 215.366 113.752C214.998 113.862 214.618 113.928 214.234 113.947H214.154C214.586 114.102 215.033 114.218 215.47 114.351C215.874 114.472 216.277 114.591 216.68 114.708C216.845 114.748 217.008 114.792 217.172 114.837C217.431 114.912 217.696 114.967 217.964 115.002C218.211 115.032 218.462 115.032 218.71 115.062C219.143 115.119 219.578 115.184 220.011 115.257C220.674 115.369 221.328 115.542 221.986 115.678C222.396 115.763 222.799 115.881 223.202 115.993C223.605 116.106 223.986 116.196 224.378 116.293C224.803 116.4 225.228 116.505 225.654 116.608C226.009 116.692 226.366 116.756 226.722 116.848C227.353 117.011 227.963 117.203 228.583 117.393L228.544 117.381L228.675 117.422L228.565 117.406C228.793 117.482 229.017 117.566 229.245 117.645C229.481 117.713 229.713 117.797 229.938 117.896C230.11 117.977 230.278 118.067 230.44 118.166C230.933 118.409 231.367 118.755 231.715 119.179C231.872 119.436 231.953 119.732 231.947 120.033C231.941 120.333 231.849 120.626 231.683 120.876C231.596 121.021 231.482 121.148 231.347 121.249C231.207 121.367 231.041 121.45 230.863 121.493C230.826 121.505 230.792 121.515 230.758 121.523C230.562 121.571 230.37 121.645 230.17 121.678C229.922 121.715 229.671 121.732 229.42 121.727C229.22 121.765 229.018 121.791 228.815 121.803C228.306 121.841 227.795 121.865 227.283 121.877H227.295H227.17H227.125C226.831 121.882 226.54 121.889 226.244 121.889C225.949 121.889 225.678 121.874 225.394 121.874C224.821 121.881 224.251 121.863 223.679 121.837C223.398 121.823 223.113 121.789 222.832 121.786C222.573 121.778 222.315 121.778 222.056 121.778C221.572 121.778 221.091 121.778 220.609 121.778H220.651H220.603H220.586C220.139 121.795 219.694 121.832 219.245 121.835C218.861 121.839 218.478 121.809 218.099 121.744C217.784 121.691 217.468 121.666 217.146 121.622C216.823 121.577 216.532 121.536 216.228 121.488C215.607 121.388 214.981 121.325 214.352 121.3C213.972 121.285 213.594 121.267 213.217 121.237C212.769 121.207 212.327 121.163 211.875 121.149C210.95 121.122 210.018 121.141 209.098 121.067C208.666 121.031 208.236 120.982 207.807 120.926C207.378 120.869 206.961 120.837 206.546 120.782C205.583 120.655 204.629 120.475 203.687 120.242C203.247 120.131 202.815 120.005 202.367 119.912C201.919 119.82 201.505 119.716 201.068 119.635C200.688 119.564 200.305 119.503 199.922 119.444C200.014 119.55 200.106 119.655 200.195 119.767L200.19 119.76L200.204 119.779L200.225 119.803L200.234 119.813L200.239 119.821L200.255 119.841L200.274 119.864L200.255 119.841C200.445 120.083 200.611 120.343 200.751 120.618C200.817 120.747 200.88 120.88 200.955 121.007C201.038 121.16 201.108 121.321 201.165 121.486C201.236 121.618 201.318 121.745 201.41 121.863C201.629 122.106 201.83 122.365 202.011 122.637C202.182 122.9 202.32 123.182 202.422 123.478C202.518 123.771 202.588 124.071 202.633 124.376C202.675 124.664 202.673 124.958 202.626 125.245C202.583 125.548 202.475 125.838 202.311 126.096C202.154 126.332 201.942 126.528 201.693 126.665C201.478 126.785 201.236 126.85 200.99 126.854C200.919 126.858 200.849 126.856 200.779 126.845ZM200.196 124.693C200.196 124.738 200.196 124.782 200.196 124.825C200.196 124.779 200.196 124.733 200.196 124.687V124.693ZM201.486 121.976C201.471 121.955 201.454 121.934 201.436 121.914L201.486 121.976ZM220.435 121.792C220.484 121.792 220.533 121.792 220.582 121.792H220.435ZM229.117 117.613L229.079 117.603L229.117 117.613ZM64.1706 115.634C64.2434 115.64 64.3165 115.64 64.3893 115.634H64.1706ZM200.448 113.335C200.486 113.335 200.527 113.335 200.568 113.335H200.448ZM166.262 107.143H166.347H166.262ZM194.608 102.868L194.782 102.933L194.61 102.85L194.608 102.868ZM190.381 100.711H190.395C190.367 100.7 190.34 100.693 190.313 100.684L190.381 100.711ZM208.097 98.4535V98.4472L208.085 98.4535H208.097ZM205.883 96.6852L205.815 96.6495L205.883 96.6852ZM19.2168 90.1095C19.2168 90.0604 19.2192 90.011 19.2241 89.9612L19.1789 90.0148L19.2115 90.1L19.2168 90.1095ZM51.3807 75.7605H51.4627H51.3807ZM66.4382 75.5261H66.5675H66.4382ZM228.447 117.372L228.527 117.398L228.447 117.372Z" fill="#FFF2F2"/>
<path d="M68.5534 225.402V203.615C50.2611 202.418 16.5497 197.443 5.056 177.276C-11.0202 149.064 16.3804 91.1282 16.3804 91.1282C16.3804 91.1282 35.8943 91.7852 47.3196 100.835C58.7449 109.884 62.0817 127.327 62.0817 127.327C62.0817 127.327 52.3752 140.775 53.5884 153.819C54.6039 164.738 65.8211 158.368 69.6866 154.58C70.9223 151.379 73.0981 148.627 75.9278 146.686C78.7575 144.745 82.1085 143.706 85.5399 143.706H140.136C149.518 143.706 157.93 151.59 161.372 157.457C161.372 157.457 167.186 168.714 157.833 187.183C155.252 192.28 151.681 199.567 147.015 205.79C135.04 221.751 119.108 236.932 119.108 236.932L68.5534 225.402Z" fill="#FFF6CC"/>
<path d="M68.5533 225.401V203.612C50.261 202.415 16.5496 197.44 5.05595 177.272C-11.0192 149.063 16.9869 87.6893 16.9869 87.6893C16.9869 87.6893 38.7253 87.1332 50.1506 96.1826C61.576 105.232 65.9198 122.269 65.9198 122.269C65.9198 122.269 52.3762 140.773 53.5894 153.815C54.6049 164.732 65.821 158.365 69.6866 154.577C70.9224 151.376 73.0984 148.624 75.9281 146.684C78.7578 144.743 82.1087 143.704 85.5399 143.705H140.139C149.52 143.705 157.933 151.589 161.375 157.455C161.375 157.455 167.19 168.713 157.836 187.181C155.256 192.279 151.684 199.566 147.018 205.789C135.044 221.751 119.113 236.931 119.113 236.931L68.5533 225.401Z" fill="url(#paint0_linear)"/>
<path d="M108.189 123.077C109.098 128.64 111.828 145.322 111.828 145.322H122.341L117.49 121.056L108.189 123.077Z" fill="url(#paint1_linear)"/>
<path d="M110.817 133.189C117.183 133.189 122.343 127.033 122.343 119.438C122.343 111.844 117.183 105.688 110.817 105.688C104.451 105.688 99.2908 111.844 99.2908 119.438C99.2908 127.033 104.451 133.189 110.817 133.189Z" fill="url(#paint2_linear)"/>
<path d="M91.2021 143.705C91.2021 143.705 106.704 157.725 118.635 157.725C130.566 157.725 138.93 143.705 138.93 143.705H91.2021Z" fill="white"/>
<path d="M206.87 97.398C207.072 96.7904 220.222 92.7472 223.25 97.398" stroke="black" stroke-width="2" stroke-linecap="round"/>
<path d="M213.139 113.573C213.139 113.573 205.657 115.798 200.602 110.945" stroke="#333333" stroke-width="2" stroke-linecap="round"/>
<path d="M199.59 119.438C199.59 119.438 190.288 111.349 190.288 108.518" stroke="#333333" stroke-width="2" stroke-linecap="round"/>
<path d="M121.425 126.792C120.656 126.582 120.411 120.717 118.299 118.732C117.192 117.691 116.817 118.345 116.245 118.999C115.707 119.613 114.996 120.225 113.344 119.439C109.932 117.817 108.039 112.896 104.647 112.227C103.547 112.156 102.445 112.344 101.431 112.776C100.592 113.111 99.7047 113.312 98.8028 113.372C97.8144 113.365 96.8582 113.02 96.0937 112.393C95.5618 112.2 95.1001 111.851 94.7682 111.393C94.4362 110.935 94.2493 110.387 94.2314 109.821C94.2135 109.256 94.3656 108.698 94.6679 108.219C94.9702 107.741 95.409 107.364 95.9276 107.137C96.0509 106.539 96.315 105.979 96.6979 105.503C97.0808 105.027 97.5716 104.649 98.1295 104.401C98.6875 104.153 99.2966 104.041 99.9063 104.075C100.516 104.109 101.109 104.287 101.636 104.596C102.233 103.905 103.056 103.448 103.959 103.309C104.861 103.169 105.784 103.356 106.561 103.835C106.877 103.338 107.303 102.92 107.806 102.613C108.309 102.307 108.876 102.12 109.463 102.068C110.049 102.016 110.64 102.099 111.19 102.311C111.739 102.523 112.232 102.859 112.631 103.293C113.019 102.87 113.496 102.54 114.027 102.326C114.559 102.112 115.131 102.02 115.703 102.055C116.275 102.091 116.832 102.255 117.332 102.533C117.833 102.812 118.265 103.199 118.596 103.667C119.113 103.409 119.682 103.27 120.259 103.262C120.837 103.254 121.409 103.376 121.933 103.619C122.458 103.862 122.92 104.221 123.287 104.668C123.653 105.114 123.914 105.638 124.05 106.199C124.862 106.396 125.588 106.852 126.117 107.498C126.647 108.144 126.952 108.944 126.986 109.779C127.579 109.874 128.142 110.106 128.629 110.458C129.116 110.81 129.514 111.271 129.791 111.804C130.068 112.338 130.216 112.929 130.223 113.53C130.23 114.13 130.097 114.725 129.832 115.265C130.482 115.525 131.049 115.958 131.471 116.517C131.892 117.075 132.153 117.739 132.226 118.435C132.298 119.132 132.178 119.835 131.88 120.468C131.582 121.101 131.116 121.641 130.534 122.029C130.73 122.906 130.615 123.824 130.206 124.624C129.797 125.424 129.122 126.056 128.297 126.41C128.015 127.069 127.555 127.636 126.968 128.047C126.381 128.458 125.691 128.696 124.976 128.736C124.26 128.776 123.548 128.615 122.92 128.271C122.291 127.928 121.771 127.415 121.418 126.792H121.425ZM107.177 121.462C107.177 121.302 107.225 121.146 107.314 121.013C107.402 120.88 107.529 120.776 107.676 120.715C107.824 120.654 107.987 120.638 108.144 120.669C108.3 120.7 108.444 120.777 108.557 120.89C108.67 121.003 108.747 121.147 108.779 121.304C108.81 121.461 108.794 121.623 108.733 121.771C108.671 121.919 108.568 122.045 108.435 122.134C108.302 122.223 108.146 122.27 107.986 122.27C107.879 122.27 107.774 122.25 107.676 122.209C107.578 122.168 107.488 122.109 107.413 122.033C107.338 121.958 107.278 121.869 107.238 121.771C107.197 121.672 107.176 121.567 107.176 121.461L107.177 121.462ZM102.727 119.843C102.727 119.683 102.775 119.527 102.864 119.394C102.952 119.261 103.079 119.157 103.226 119.096C103.374 119.035 103.537 119.019 103.693 119.05C103.85 119.081 103.994 119.158 104.107 119.271C104.22 119.384 104.297 119.528 104.329 119.685C104.36 119.842 104.344 120.004 104.283 120.152C104.221 120.3 104.118 120.426 103.985 120.515C103.852 120.604 103.696 120.651 103.536 120.651C103.321 120.651 103.116 120.566 102.964 120.414C102.813 120.263 102.728 120.057 102.727 119.843Z" fill="#333333"/>
<path d="M111.174 123.483C111.43 124.207 111.921 124.824 112.569 125.236C113.456 125.676 114.416 125.95 115.401 126.045" stroke="#333333" stroke-linecap="round"/>
<path d="M106.125 119.924L104.953 121.379C104.953 121.379 103.537 121.919 103.537 122.471C103.537 123.644 104.953 123.887 104.953 123.887" stroke="#333333" stroke-linecap="round"/>
<path d="M110.31 124.797C110.31 124.797 109.693 126.959 108.679 127.353C107.664 127.747 105.559 127.325 105.458 126.314C105.357 125.302 106.681 126.362 107.697 125.967C108.712 125.571 110.31 124.797 110.31 124.797Z" fill="#FF4D4D"/>
<path d="M116.379 123.094C116.278 122.914 116.222 122.713 116.216 122.507C116.214 122.409 116.221 122.311 116.237 122.215C116.219 122.13 116.215 122.044 116.226 121.958C116.237 121.877 116.256 121.798 116.285 121.722L116.362 121.456C116.4 121.327 116.44 121.202 116.475 121.075C116.526 120.859 116.558 120.64 116.57 120.418C116.566 120.253 116.532 120.09 116.532 119.921V119.863C116.51 119.776 116.497 119.687 116.495 119.597C116.493 119.44 116.507 119.283 116.538 119.129C116.519 119.039 116.509 118.947 116.51 118.855C116.5 118.606 116.542 118.358 116.632 118.125C116.697 117.961 116.774 117.801 116.861 117.647C117.026 117.339 117.283 117.091 117.597 116.937C117.702 116.887 117.812 116.847 117.925 116.815C118.193 116.705 118.481 116.65 118.771 116.653C118.807 116.653 118.843 116.653 118.876 116.653C119.226 116.666 119.558 116.805 119.812 117.047C120.029 117.232 120.19 117.474 120.277 117.746C120.327 117.939 120.348 118.139 120.339 118.339C120.371 118.767 120.284 119.196 120.088 119.578C119.943 119.74 119.381 120.209 119.238 120.369C119.095 120.528 118.973 120.71 118.844 120.88C118.723 121.046 118.615 121.221 118.523 121.405C118.546 121.368 118.563 121.327 118.587 121.291C118.542 121.372 118.505 121.453 118.468 121.539C118.405 121.679 118.342 121.824 118.279 121.968C118.216 122.112 118.157 122.283 118.087 122.438C118.033 122.556 117.972 122.671 117.903 122.781C117.837 122.879 117.763 122.97 117.683 123.056C117.603 123.146 117.509 123.224 117.405 123.286C117.31 123.354 117.203 123.402 117.09 123.43C117.045 123.44 116.998 123.444 116.952 123.443C116.834 123.44 116.719 123.406 116.619 123.345C116.518 123.284 116.436 123.197 116.379 123.094ZM116.484 121.05C116.492 121.023 116.498 120.994 116.505 120.967L116.484 121.05Z" fill="#FFE6E6"/>
<path d="M117.648 119.112C117.631 119.112 118.118 119.112 118.1 119.112C117.929 119.091 118.072 119.242 118.1 119.112C118.808 115.888 117.858 112.561 116.798 110.007C116.314 108.787 115.587 107.677 114.662 106.745C113.737 105.814 112.632 105.08 111.415 104.588C110.031 104.05 108.562 103.761 107.078 103.733C106.904 103.727 106.77 103.617 106.777 103.487C106.793 103.415 106.836 103.352 106.897 103.31C106.957 103.268 107.032 103.251 107.105 103.261C108.683 103.291 110.243 103.6 111.714 104.171C112.997 104.687 114.163 105.457 115.14 106.436C116.117 107.415 116.885 108.582 117.398 109.866C118.748 112.749 119.19 115.973 118.667 119.112C118.637 119.228 117.795 119.112 117.648 119.112Z" fill="url(#paint3_linear)"/>
<path d="M118.144 120.102C118.788 120.102 119.309 119.581 119.309 118.938C119.309 118.294 118.788 117.773 118.144 117.773C117.501 117.773 116.98 118.294 116.98 118.938C116.98 119.581 117.501 120.102 118.144 120.102Z" fill="#FF4D4D"/>
<path d="M110.463 125.604C110.402 125.601 110.345 125.576 110.302 125.533C110.259 125.489 110.235 125.431 110.234 125.371C110.232 125.31 110.254 125.251 110.295 125.206C110.335 125.161 110.392 125.133 110.452 125.128C112.21 125.054 113.894 124.403 115.243 123.275C116.593 122.147 117.532 120.605 117.916 118.888C117.923 118.858 117.936 118.829 117.954 118.803C117.972 118.778 117.995 118.756 118.022 118.739C118.048 118.722 118.078 118.711 118.108 118.706C118.139 118.7 118.171 118.701 118.202 118.708C118.232 118.715 118.261 118.728 118.287 118.746C118.312 118.764 118.334 118.787 118.351 118.813C118.368 118.84 118.379 118.869 118.384 118.9C118.39 118.931 118.389 118.963 118.382 118.993C117.975 120.811 116.98 122.443 115.551 123.638C114.123 124.833 112.34 125.523 110.479 125.603L110.463 125.604Z" fill="#FF4D4D"/>
<path d="M109.764 126.788C110.325 126.788 110.78 126.332 110.78 125.771C110.78 125.21 110.325 124.754 109.764 124.754C109.202 124.754 108.747 125.21 108.747 125.771C108.747 126.332 109.202 126.788 109.764 126.788Z" fill="black"/>
<path d="M102.727 117.315C102.997 117.192 103.29 117.128 103.587 117.128C103.883 117.128 104.176 117.192 104.446 117.315C104.747 117.45 105.007 117.661 105.202 117.926C105.397 118.192 105.52 118.504 105.559 118.831" stroke="#333333" stroke-linecap="round"/>
<path d="M107.176 119.337C107.446 119.215 107.739 119.151 108.036 119.151C108.332 119.151 108.625 119.215 108.895 119.337C109.196 119.473 109.456 119.684 109.651 119.949C109.846 120.215 109.969 120.527 110.008 120.854" stroke="#333333" stroke-linecap="round"/>
<path d="M126.51 185.766H9.78572C5.72148 185.766 2.42676 189.061 2.42676 193.125V245.949C2.42676 250.013 5.72148 253.308 9.78572 253.308H126.51C130.575 253.308 133.869 250.013 133.869 245.949V193.125C133.869 189.061 130.575 185.766 126.51 185.766Z" fill="#E6E6E6"/>
<path d="M122.466 182.127H7.35933C3.29509 182.127 0.000366211 185.422 0.000366211 189.486V241.5C0.000366211 245.564 3.29509 248.859 7.35933 248.859H122.466C126.53 248.859 129.825 245.564 129.825 241.5V189.486C129.825 185.422 126.53 182.127 122.466 182.127Z" fill="white"/>
<path d="M8.89852 191.026C10.0156 191.026 10.9212 190.12 10.9212 189.003C10.9212 187.886 10.0156 186.981 8.89852 186.981C7.78143 186.981 6.87585 187.886 6.87585 189.003C6.87585 190.12 7.78143 191.026 8.89852 191.026Z" fill="#FF4D4D"/>
<path d="M15.369 191.026C16.4861 191.026 17.3916 190.12 17.3916 189.003C17.3916 187.886 16.4861 186.981 15.369 186.981C14.2519 186.981 13.3463 187.886 13.3463 189.003C13.3463 190.12 14.2519 191.026 15.369 191.026Z" fill="#FFD717"/>
<path d="M21.8407 191.026C22.9577 191.026 23.8633 190.12 23.8633 189.003C23.8633 187.886 22.9577 186.981 21.8407 186.981C20.7236 186.981 19.818 187.886 19.818 189.003C19.818 190.12 20.7236 191.026 21.8407 191.026Z" fill="#B2E672"/>
<path d="M0.000366211 194.26H129.825" stroke="#E6E6E6" stroke-width="2"/>
<path d="M0.000366211 205.584H129.825" stroke="#E6E6E6" stroke-width="2"/>
<path d="M252.691 153.411H299.184C301.415 153.411 303.554 154.297 305.131 155.875C306.708 157.452 307.595 159.591 307.595 161.822V240.773H244.281V161.822C244.281 159.591 245.167 157.452 246.744 155.875C248.322 154.297 250.461 153.411 252.691 153.411V153.411Z" fill="#E6E6E6"/>
<path d="M248.647 153.411H295.14C297.371 153.411 299.51 154.297 301.087 155.875C302.664 157.452 303.55 159.591 303.55 161.822V241.579H240.237V161.822C240.237 159.591 241.123 157.452 242.7 155.875C244.277 154.297 246.417 153.411 248.647 153.411V153.411Z" fill="#FAFAFA"/>
<path d="M268.851 170.458H246.934C246.261 170.458 245.716 171.003 245.716 171.675C245.716 172.348 246.261 172.893 246.934 172.893H268.851C269.523 172.893 270.068 172.348 270.068 171.675C270.068 171.003 269.523 170.458 268.851 170.458Z" fill="#E6E6E6"/>
<path d="M282.853 185.677H260.936C260.263 185.677 259.718 186.222 259.718 186.895C259.718 187.567 260.263 188.112 260.936 188.112H282.853C283.525 188.112 284.07 187.567 284.07 186.895C284.07 186.222 283.525 185.677 282.853 185.677Z" fill="#E6E6E6"/>
<path d="M282.853 199.071H260.936C260.263 199.071 259.718 199.616 259.718 200.288C259.718 200.96 260.263 201.505 260.936 201.505H282.853C283.525 201.505 284.07 200.96 284.07 200.288C284.07 199.616 283.525 199.071 282.853 199.071Z" fill="#E6E6E6"/>
<path d="M273.72 235.597H270.067C269.395 235.597 268.85 236.142 268.85 236.815C268.85 237.487 269.395 238.032 270.067 238.032H273.72C274.393 238.032 274.938 237.487 274.938 236.815C274.938 236.142 274.393 235.597 273.72 235.597Z" fill="#E6E6E6"/>
<path d="M293.81 191.156H249.977C248.632 191.156 247.542 192.247 247.542 193.591V193.592C247.542 194.937 248.632 196.027 249.977 196.027H293.81C295.155 196.027 296.245 194.937 296.245 193.592V193.591C296.245 192.247 295.155 191.156 293.81 191.156Z" fill="#E6E6E6"/>
<path d="M294.419 176.546C297.109 176.546 299.29 174.365 299.29 171.675C299.29 168.985 297.109 166.805 294.419 166.805C291.729 166.805 289.548 168.985 289.548 171.675C289.548 174.365 291.729 176.546 294.419 176.546Z" fill="#E6E6E6"/>
<path d="M294.42 224.64C297.11 224.64 299.291 222.459 299.291 219.769C299.291 217.079 297.11 214.899 294.42 214.899C291.73 214.899 289.549 217.079 289.549 219.769C289.549 222.459 291.73 224.64 294.42 224.64Z" fill="#E6E6E6"/>
<path d="M249.978 224.64C252.668 224.64 254.849 222.459 254.849 219.769C254.849 217.079 252.668 214.899 249.978 214.899C247.288 214.899 245.108 217.079 245.108 219.769C245.108 222.459 247.288 224.64 249.978 224.64Z" fill="#E6E6E6"/>
<path d="M272.198 232.553C279.427 232.553 285.287 226.693 285.287 219.464C285.287 212.236 279.427 206.376 272.198 206.376C264.97 206.376 259.11 212.236 259.11 219.464C259.11 226.693 264.97 232.553 272.198 232.553Z" fill="#E6E6E6"/>
<path d="M247.238 161.326C248.079 161.326 248.761 160.645 248.761 159.804C248.761 158.964 248.079 158.282 247.238 158.282C246.398 158.282 245.716 158.964 245.716 159.804C245.716 160.645 246.398 161.326 247.238 161.326Z" fill="#FF4D4D"/>
<path d="M252.108 161.326C252.949 161.326 253.63 160.645 253.63 159.804C253.63 158.964 252.949 158.282 252.108 158.282C251.267 158.282 250.586 158.964 250.586 159.804C250.586 160.645 251.267 161.326 252.108 161.326Z" fill="#FFD717"/>
<path d="M256.979 161.326C257.819 161.326 258.501 160.645 258.501 159.804C258.501 158.964 257.819 158.282 256.979 158.282C256.138 158.282 255.456 158.964 255.456 159.804C255.456 160.645 256.138 161.326 256.979 161.326Z" fill="#FFD717"/>
<path d="M268.404 218.549C269.446 220.587 271.105 222.245 273.143 223.288L274.72 221.711C274.814 221.616 274.933 221.55 275.063 221.52C275.193 221.489 275.329 221.496 275.456 221.539C276.284 221.811 277.151 221.949 278.023 221.949C278.214 221.949 278.396 222.025 278.531 222.16C278.666 222.295 278.742 222.477 278.742 222.668V225.177C278.742 225.368 278.666 225.55 278.531 225.685C278.396 225.82 278.214 225.896 278.023 225.896C276.417 225.896 274.828 225.58 273.344 224.965C271.861 224.35 270.513 223.449 269.378 222.313C268.243 221.178 267.343 219.83 266.729 218.346C266.116 216.862 265.8 215.272 265.801 213.667C265.801 213.476 265.877 213.293 266.012 213.159C266.147 213.024 266.329 212.948 266.52 212.948H269.037C269.227 212.948 269.41 213.024 269.545 213.159C269.679 213.293 269.755 213.476 269.756 213.667C269.755 214.539 269.893 215.405 270.166 216.234C270.207 216.361 270.212 216.497 270.18 216.627C270.149 216.757 270.081 216.876 269.986 216.97L268.404 218.549Z" fill="#333333"/>
<path d="M297.667 117.757H251.157C246.019 117.757 241.855 121.922 241.855 127.059V127.06C241.855 132.197 246.019 136.362 251.157 136.362H297.667C302.805 136.362 306.969 132.197 306.969 127.06V127.059C306.969 121.922 302.805 117.757 297.667 117.757Z" fill="#E6E6E6"/>
<path d="M293.623 113.738H247.112C241.975 113.738 237.811 117.903 237.811 123.04V123.041C237.811 128.178 241.975 132.343 247.112 132.343H293.623C298.76 132.343 302.925 128.178 302.925 123.041V123.04C302.925 117.903 298.76 113.738 293.623 113.738Z" fill="#FF4D4D"/>
<path d="M259.246 97.0522C268.851 97.0522 276.638 89.2658 276.638 79.6609C276.638 70.0559 268.851 62.2695 259.246 62.2695C249.641 62.2695 241.855 70.0559 241.855 79.6609C241.855 89.2658 249.641 97.0522 259.246 97.0522Z" fill="#E6E6E6"/>
<path d="M260.863 145.97C262.427 145.97 263.694 144.703 263.694 143.139C263.694 141.576 262.427 140.308 260.863 140.308C259.3 140.308 258.032 141.576 258.032 143.139C258.032 144.703 259.3 145.97 260.863 145.97Z" fill="#333333"/>
<path d="M270.57 145.97C272.133 145.97 273.401 144.703 273.401 143.139C273.401 141.576 272.133 140.308 270.57 140.308C269.006 140.308 267.739 141.576 267.739 143.139C267.739 144.703 269.006 145.97 270.57 145.97Z" fill="white"/>
<path d="M270.57 144.919C271.553 144.919 272.349 144.122 272.349 143.139C272.349 142.156 271.553 141.359 270.57 141.359C269.587 141.359 268.79 142.156 268.79 143.139C268.79 144.122 269.587 144.919 270.57 144.919Z" stroke="#333333" stroke-width="2"/>
<path d="M280.276 145.97C281.84 145.97 283.107 144.703 283.107 143.139C283.107 141.576 281.84 140.308 280.276 140.308C278.712 140.308 277.445 141.576 277.445 143.139C277.445 144.703 278.712 145.97 280.276 145.97Z" fill="white"/>
<path d="M280.276 144.919C281.259 144.919 282.056 144.122 282.056 143.139C282.056 142.156 281.259 141.359 280.276 141.359C279.293 141.359 278.496 142.156 278.496 143.139C278.496 144.122 279.293 144.919 280.276 144.919Z" stroke="#333333" stroke-width="2"/>
<path d="M175.526 241.174H328" stroke="#333333" stroke-width="2" stroke-linecap="round"/>
<path d="M195.853 240.169V223.622C194.385 222.791 193.164 221.584 192.315 220.127C191.466 218.669 191.018 217.012 191.018 215.325C191.018 213.638 191.466 211.981 192.315 210.524C193.164 209.066 194.385 207.86 195.853 207.028V203.911H205.251V207.028C206.719 207.86 207.939 209.066 208.788 210.524C209.638 211.982 210.085 213.638 210.085 215.325C210.085 217.012 209.638 218.669 208.788 220.126C207.939 221.584 206.719 222.79 205.251 223.622V240.169H195.853Z" fill="url(#paint4_linear)"/>
<path d="M175.439 168.458C176.984 165.974 184.165 167.921 188.599 171.681C193.033 175.442 196.858 184.775 195.313 187.26C193.769 189.744 186.853 185.379 182.422 181.619C177.991 177.86 173.895 170.942 175.439 168.458Z" fill="#B2E672"/>
<path d="M225.599 168.458C224.055 165.974 216.873 167.921 212.439 171.681C208.005 175.442 204.18 184.775 205.724 187.26C207.269 189.744 214.184 185.379 218.616 181.619C223.048 177.86 227.143 170.942 225.599 168.458Z" fill="#B2E672"/>
<path d="M213.001 155.183C210.765 153.297 204.537 157.368 201.482 162.314C198.427 167.261 197.674 177.317 199.91 179.203C202.146 181.088 207.374 174.801 210.427 169.855C213.48 164.91 215.238 157.068 213.001 155.183Z" fill="#B2E672"/>
<path d="M182.959 172.756C187.427 175.901 191.105 180.039 193.702 184.846C197.802 192.635 199.342 203.915 199.342 203.915" stroke="#333333" stroke-linecap="round"/>
<path d="M218.079 172.756C213.611 175.901 209.933 180.039 207.335 184.846C203.235 192.635 201.695 203.915 201.695 203.915" stroke="#333333" stroke-linecap="round"/>
<path d="M207.177 161.593C203.899 165.964 201.681 171.036 200.695 176.41C199.206 185.079 200.695 203.64 200.695 203.64" stroke="#333333" stroke-linecap="round"/>
<path d="M247.921 123.24H274.614" stroke="white" stroke-width="5" stroke-linecap="round"/>
<path d="M289.542 120.146C289.784 119.712 290.161 119.369 290.617 119.17C291.072 118.971 291.581 118.928 292.063 119.046C292.546 119.165 292.977 119.438 293.289 119.825C293.601 120.212 293.777 120.691 293.79 121.188C293.79 122.838 291.818 124.525 289.542 126.785C287.266 124.525 285.294 122.838 285.294 121.188C285.308 120.691 285.485 120.213 285.797 119.827C286.109 119.441 286.539 119.167 287.021 119.049C287.503 118.931 288.011 118.974 288.467 119.172C288.922 119.37 289.3 119.712 289.542 120.146Z" fill="white"/>
<path d="M255.202 93.0351C264.807 93.0351 272.593 85.2488 272.593 75.6438C272.593 66.0388 264.807 58.2524 255.202 58.2524C245.597 58.2524 237.811 66.0388 237.811 75.6438C237.811 85.2488 245.597 93.0351 255.202 93.0351Z" fill="white"/>
<path d="M255.202 92.5095C264.517 92.5095 272.068 84.9584 272.068 75.6438C272.068 66.3291 264.517 58.7781 255.202 58.7781C245.887 58.7781 238.336 66.3291 238.336 75.6438C238.336 84.9584 245.887 92.5095 255.202 92.5095Z" stroke="#333333"/>
<path d="M117.49 162.763C117.085 163.572 118.904 174.087 109.401 182.175" stroke="#333333" stroke-linecap="round"/>
<path d="M113.648 179.336C114.765 179.336 115.671 178.43 115.671 177.313C115.671 176.196 114.765 175.291 113.648 175.291C112.531 175.291 111.625 176.196 111.625 177.313C111.625 178.43 112.531 179.336 113.648 179.336Z" fill="#396AFC"/>
<path d="M116.884 171.697C118.001 171.697 118.907 170.792 118.907 169.675C118.907 168.557 118.001 167.652 116.884 167.652C115.767 167.652 114.861 168.557 114.861 169.675C114.861 170.792 115.767 171.697 116.884 171.697Z" fill="#396AFC"/>
<path d="M254.949 71.4314C255.095 71.4314 260.238 86.8295 260.238 86.8295L265.809 88.1487C265.809 88.1487 265.549 88.9392 262.615 90.8462C259.682 92.7532 256.458 92.6028 252.171 92.2306C249.678 92.0475 247.319 91.0355 245.468 89.3555L252.171 86.8326L251.291 71.4345L254.949 71.4314Z" fill="url(#paint5_linear)"/>
<path d="M254.286 80.7835C257.931 80.7835 260.885 78.0258 260.885 74.6241C260.885 71.2223 257.931 68.4646 254.286 68.4646C250.642 68.4646 247.687 71.2223 247.687 74.6241C247.687 78.0258 250.642 80.7835 254.286 80.7835Z" fill="#FFE5E6"/>
<path d="M244.597 80.0612C244.03 78.315 243.849 76.4665 244.066 74.6435C244.284 72.8205 244.896 71.0666 245.858 69.5032C248.237 65.727 250.254 64.7367 254.36 64.9564L254.695 64.9775C254.451 64.6088 254.289 64.1927 254.218 63.7565C254.147 63.3203 254.169 62.8739 254.283 62.447C254.405 61.7362 254.803 61.1022 255.389 60.6825C255.975 60.2627 256.704 60.091 257.416 60.2046C258.097 60.4393 258.659 60.9328 258.979 61.5784C259.298 62.224 259.351 62.9697 259.125 63.6539C258.94 64.4449 258.459 65.1347 257.78 65.5809C259.672 66.3084 260.91 67.7423 262.279 70.3831C264.332 74.3423 265.139 75.7352 264.185 78.1553C263.232 80.5753 260.519 82.0786 258.466 80.0612C256.413 78.0438 258.173 74.0122 255.974 71.9958C253.774 69.9794 250.28 69.9794 248.703 71.9958C247.126 74.0122 250.258 78.0449 249.29 80.0612C249.062 80.5617 248.702 80.99 248.248 81.2993C247.793 81.6086 247.263 81.7869 246.714 81.8148C246.216 81.802 245.736 81.6222 245.352 81.3042C244.968 80.9862 244.702 80.5485 244.597 80.0612Z" fill="#333333"/>
<path d="M250.521 74.7652C250.969 74.7652 251.333 74.4013 251.333 73.9525C251.333 73.5037 250.969 73.1399 250.521 73.1399C250.072 73.1399 249.708 73.5037 249.708 73.9525C249.708 74.4013 250.072 74.7652 250.521 74.7652Z" fill="#333333"/>
<path d="M254.177 74.7652C254.626 74.7652 254.99 74.4013 254.99 73.9525C254.99 73.5037 254.626 73.1399 254.177 73.1399C253.728 73.1399 253.364 73.5037 253.364 73.9525C253.364 74.4013 253.728 74.7652 254.177 74.7652Z" fill="#333333"/>
<path d="M254.584 77.6087C254.367 77.9411 254.108 78.2444 253.814 78.5116C253.532 78.8023 253.158 78.9858 252.756 79.0301C251.841 79.0301 250.927 77.6077 250.927 77.6077L254.584 77.6087Z" fill="#FF4D4D"/>
<path d="M251.333 77.6077H254.172C254.172 77.7153 254.129 77.8185 254.053 77.8946C253.977 77.9707 253.873 78.0135 253.766 78.0135H251.739C251.631 78.0135 251.528 77.9707 251.452 77.8946C251.376 77.8185 251.333 77.7153 251.333 77.6077V77.6077Z" fill="white"/>
<path d="M252.392 74.613C252.392 74.613 251.372 75.772 251.472 76.2349C251.572 76.6978 252.789 76.4675 252.789 76.4675" stroke="#333333" stroke-linecap="round"/>
<path d="M253.567 72.53H255.598" stroke="#333333" stroke-linecap="round"/>
<path d="M249.032 78.3181C249.487 79.0724 250.134 79.6925 250.907 80.1147C251.681 80.537 252.552 80.7463 253.433 80.7215" stroke="#333333" stroke-linecap="round"/>
<path d="M251.806 80.728L252.483 89.049" stroke="#333333" stroke-linecap="round"/>
<path d="M245.15 89.5682L249.957 87.6055C249.957 87.6055 249.489 89.5682 253.031 89.5682C256.573 89.5682 264.138 87.6055 264.138 87.6055L266.766 87.8641L265.275 89.5682C265.275 89.5682 259.843 92.8703 254.625 92.8703C251.21 92.7279 247.913 91.5791 245.15 89.5682Z" fill="#396AFC"/>
<path d="M21.6379 94.0657C21.6379 94.0657 3.4833 132.958 10.243 167.875" stroke="#333333" stroke-linecap="round"/>
<path d="M181.433 29.1194H152.23C149.908 29.1194 148.025 31.0021 148.025 33.3245V43.5188C148.025 45.8412 149.908 47.7239 152.23 47.7239H181.433C183.755 47.7239 185.638 45.8412 185.638 43.5188V33.3245C185.638 31.0021 183.755 29.1194 181.433 29.1194Z" fill="#E6E6E6"/>
<path d="M176.579 24.2668H147.376C145.054 24.2668 143.171 26.1495 143.171 28.472V38.6662C143.171 40.9887 145.054 42.8714 147.376 42.8714H176.579C178.901 42.8714 180.784 40.9887 180.784 38.6662V28.472C180.784 26.1495 178.901 24.2668 176.579 24.2668Z" fill="white"/>
<path d="M176.579 24.7925H147.376C145.344 24.7925 143.697 26.4398 143.697 28.472V38.6662C143.697 40.6984 145.344 42.3457 147.376 42.3457H176.579C178.611 42.3457 180.258 40.6984 180.258 38.6662V28.472C180.258 26.4398 178.611 24.7925 176.579 24.7925Z" stroke="#333333" stroke-linecap="round"/>
<path d="M147.297 32.2935H147.707V32.7375H147.979V32.2935H148.389V32.0335H147.979V31.5875H147.707V32.0335H147.297V32.2935ZM148.583 32.7375H149.535V32.4375H149.229V31.3075H148.927L148.541 31.6695L148.743 31.8855L148.829 31.8075C148.867 31.7715 148.885 31.7315 148.885 31.7315H148.889C148.889 31.7315 148.887 31.7875 148.887 31.8415V32.4375H148.583V32.7375Z" fill="black"/>
<path d="M156.315 33.7705H174.92" stroke="black" stroke-linecap="round"/>
<path d="M142.004 24.2594L138.52 22.447" stroke="#333333" stroke-width="2" stroke-linecap="round"/>
<path d="M141.021 26.0317L138.52 26.8948" stroke="#333333" stroke-width="2" stroke-linecap="round"/>
<path d="M142.16 20.4243L142.981 22.4953" stroke="#333333" stroke-width="2" stroke-linecap="round"/>
<path d="M142.477 41.449L138.802 43.571C138.607 43.6836 138.375 43.7141 138.158 43.6558C137.94 43.5975 137.755 43.4553 137.642 43.2603C137.53 43.0653 137.499 42.8336 137.558 42.6161C137.616 42.3986 137.758 42.2132 137.953 42.1007L141.629 39.9786L140.673 38.3244L145.643 38.4439L143.538 43.2863L142.477 41.449Z" fill="#E6E6E6"/>
<path d="M141.669 40.2359L137.994 42.3579C137.799 42.4704 137.567 42.501 137.349 42.4427C137.132 42.3844 136.946 42.2421 136.834 42.0472C136.721 41.8522 136.691 41.6205 136.749 41.403C136.807 41.1855 136.95 41.0001 137.145 40.8875L140.82 38.7655L139.865 37.1112L144.835 37.2307L142.73 42.0731L141.669 40.2359Z" fill="#FF4D4D"/>
<path d="M303.127 169.387V221.155" stroke="black" stroke-width="2" stroke-linecap="round"/>
<path d="M240.844 189.204V240.973" stroke="black" stroke-width="2" stroke-linecap="round" stroke-dasharray="5 5"/>
<path d="M0.000366211 217.783H130.904V238.135H0.000366211V217.783Z" fill="#EBEBEB"/>
<path d="M6.05896 211.301V213.471H3.88911V211.301H6.05896ZM6.05896 210.986H3.88911C3.80547 210.986 3.72525 211.019 3.6661 211.078C3.60696 211.137 3.57373 211.218 3.57373 211.301V213.471C3.57373 213.555 3.60696 213.635 3.6661 213.694C3.72525 213.753 3.80547 213.786 3.88911 213.786H6.05896C6.1426 213.786 6.22282 213.753 6.28197 213.694C6.34111 213.635 6.37434 213.555 6.37434 213.471V211.301C6.37434 211.218 6.34111 211.137 6.28197 211.078C6.22282 211.019 6.1426 210.986 6.05896 210.986Z" fill="#333333"/>
<path d="M6.05896 221.4V223.569H3.88911V221.4H6.05896ZM6.05896 221.084H3.88911C3.80547 221.084 3.72525 221.117 3.6661 221.177C3.60696 221.236 3.57373 221.316 3.57373 221.4V223.569C3.57373 223.653 3.60696 223.733 3.6661 223.792C3.72525 223.852 3.80547 223.885 3.88911 223.885H6.05896C6.1426 223.885 6.22282 223.852 6.28197 223.792C6.34111 223.733 6.37434 223.653 6.37434 223.569V221.4C6.37434 221.316 6.34111 221.236 6.28197 221.177C6.22282 221.117 6.1426 221.084 6.05896 221.084Z" fill="#333333"/>
<path d="M6.05896 231.497V233.667H3.88911V231.497H6.05896ZM6.05896 231.182H3.88911C3.80547 231.182 3.72525 231.215 3.6661 231.274C3.60696 231.333 3.57373 231.414 3.57373 231.497V233.667C3.57373 233.751 3.60696 233.831 3.6661 233.89C3.72525 233.949 3.80547 233.982 3.88911 233.982H6.05896C6.1426 233.982 6.22282 233.949 6.28197 233.89C6.34111 233.831 6.37434 233.751 6.37434 233.667V231.497C6.37434 231.414 6.34111 231.333 6.28197 231.274C6.22282 231.215 6.1426 231.182 6.05896 231.182Z" fill="#333333"/>
<path d="M6.05896 241.751V243.921H3.88911V241.751H6.05896ZM6.05896 241.436H3.88911C3.80547 241.436 3.72525 241.469 3.6661 241.528C3.60696 241.588 3.57373 241.668 3.57373 241.751V243.921C3.57373 244.005 3.60696 244.085 3.6661 244.144C3.72525 244.203 3.80547 244.237 3.88911 244.237H6.05896C6.1426 244.237 6.22282 244.203 6.28197 244.144C6.34111 244.085 6.37434 244.005 6.37434 243.921V241.751C6.37434 241.668 6.34111 241.588 6.28197 241.528C6.22282 241.469 6.1426 241.436 6.05896 241.436Z" fill="#333333"/>
<path d="M0.078125 217.433H119.242" stroke="white"/>
<path d="M0.078125 227.532H129.96" stroke="white"/>
<path d="M0.202271 238.034H119.444" stroke="white"/>
<path d="M15.5363 213.697C16.2754 213.697 16.8746 213.098 16.8746 212.359C16.8746 211.619 16.2754 211.02 15.5363 211.02C14.7972 211.02 14.198 211.619 14.198 212.359C14.198 213.098 14.7972 213.697 15.5363 213.697Z" stroke="black"/>
<g filter="url(#filter0_d)">
<path d="M15.5309 244.388C16.5603 244.388 17.3948 243.553 17.3948 242.524C17.3948 241.495 16.5603 240.66 15.5309 240.66C14.5015 240.66 13.667 241.495 13.667 242.524C13.667 243.553 14.5015 244.388 15.5309 244.388Z" fill="#FF4D4D"/>
</g>
<path d="M64.5857 198.838H64.4302V198.523C64.4302 198.317 64.3483 198.119 64.2026 197.973C64.0569 197.828 63.8593 197.746 63.6533 197.746C63.4472 197.746 63.2496 197.828 63.1039 197.973C62.9582 198.119 62.8764 198.317 62.8764 198.523V198.838H62.726C62.6424 198.838 62.5622 198.871 62.503 198.931C62.4439 198.99 62.4106 199.07 62.4106 199.154V200.703C62.4106 200.787 62.4439 200.867 62.503 200.926C62.5622 200.985 62.6424 201.018 62.726 201.018H64.5857C64.6694 201.018 64.7496 200.985 64.8088 200.926C64.8679 200.867 64.9011 200.787 64.9011 200.703V199.149C64.9 199.066 64.8663 198.987 64.8073 198.929C64.7483 198.871 64.6687 198.838 64.5857 198.838ZM63.6533 200.236C63.5909 200.236 63.5299 200.218 63.478 200.183C63.4262 200.149 63.3858 200.099 63.3619 200.042C63.338 199.984 63.3318 199.921 63.3439 199.859C63.3561 199.798 63.3861 199.742 63.4302 199.698C63.4744 199.654 63.5306 199.624 63.5917 199.612C63.6529 199.599 63.7163 199.606 63.774 199.63C63.8316 199.653 63.8808 199.694 63.9155 199.746C63.9501 199.798 63.9686 199.859 63.9686 199.921C63.9686 200.005 63.9354 200.085 63.8763 200.144C63.8171 200.203 63.7369 200.236 63.6533 200.236ZM64.1347 198.838H63.1718V198.523C63.1718 198.395 63.2225 198.273 63.3128 198.182C63.4031 198.092 63.5256 198.041 63.6533 198.041C63.781 198.041 63.9034 198.092 63.9937 198.182C64.084 198.273 64.1347 198.395 64.1347 198.523V198.838Z" fill="#333333"/>
<path d="M44.4022 199.114H29.842C29.3955 199.114 29.0336 199.475 29.0336 199.922V199.923C29.0336 200.369 29.3955 200.731 29.842 200.731H44.4022C44.8487 200.731 45.2107 200.369 45.2107 199.923V199.922C45.2107 199.475 44.8487 199.114 44.4022 199.114Z" fill="#333333"/>
<path d="M48.5768 211.246H29.9713C29.5248 211.246 29.1628 211.608 29.1628 212.055V212.056C29.1628 212.502 29.5248 212.864 29.9713 212.864H48.5768C49.0233 212.864 49.3853 212.502 49.3853 212.056V212.055C49.3853 211.608 49.0233 211.246 48.5768 211.246Z" fill="#333333"/>
<path d="M48.5768 222.166H29.9713C29.5248 222.166 29.1628 222.528 29.1628 222.974V222.976C29.1628 223.422 29.5248 223.784 29.9713 223.784H48.5768C49.0233 223.784 49.3853 223.422 49.3853 222.976V222.974C49.3853 222.528 49.0233 222.166 48.5768 222.166Z" fill="#333333"/>
<path d="M48.5768 232.277H29.9713C29.5248 232.277 29.1628 232.639 29.1628 233.086V233.087C29.1628 233.533 29.5248 233.895 29.9713 233.895H48.5768C49.0233 233.895 49.3853 233.533 49.3853 233.087V233.086C49.3853 232.639 49.0233 232.277 48.5768 232.277Z" fill="#333333"/>
<path d="M48.5768 242.389H29.9713C29.5248 242.389 29.1628 242.751 29.1628 243.197V243.198C29.1628 243.645 29.5248 244.007 29.9713 244.007H48.5768C49.0233 244.007 49.3853 243.645 49.3853 243.198V243.197C49.3853 242.751 49.0233 242.389 48.5768 242.389Z" fill="#333333"/>
<path d="M86.709 211.246H64.0592C63.6127 211.246 63.2507 211.608 63.2507 212.055V212.056C63.2507 212.502 63.6127 212.864 64.0592 212.864H86.709C87.1555 212.864 87.5174 212.502 87.5174 212.056V212.055C87.5174 211.608 87.1555 211.246 86.709 211.246Z" fill="#333333"/>
<path d="M86.709 221.358H64.0592C63.6127 221.358 63.2507 221.72 63.2507 222.166V222.167C63.2507 222.614 63.6127 222.976 64.0592 222.976H86.709C87.1555 222.976 87.5174 222.614 87.5174 222.167V222.166C87.5174 221.72 87.1555 221.358 86.709 221.358Z" fill="#333333"/>
<path d="M86.709 231.469H64.0592C63.6127 231.469 63.2507 231.831 63.2507 232.277V232.278C63.2507 232.725 63.6127 233.087 64.0592 233.087H86.709C87.1555 233.087 87.5174 232.725 87.5174 232.278V232.277C87.5174 231.831 87.1555 231.469 86.709 231.469Z" fill="#333333"/>
<path d="M86.709 241.579H64.0592C63.6127 241.579 63.2507 241.941 63.2507 242.388V242.389C63.2507 242.835 63.6127 243.197 64.0592 243.197H86.709C87.1555 243.197 87.5174 242.835 87.5174 242.389V242.388C87.5174 241.941 87.1555 241.579 86.709 241.579Z" fill="#333333"/>
<path d="M145.733 211.246H102.525C102.079 211.246 101.717 211.608 101.717 212.055V212.056C101.717 212.502 102.079 212.864 102.525 212.864H145.733C146.18 212.864 146.542 212.502 146.542 212.056V212.055C146.542 211.608 146.18 211.246 145.733 211.246Z" fill="#333333"/>
<path d="M145.733 221.358H102.525C102.079 221.358 101.717 221.72 101.717 222.166V222.167C101.717 222.614 102.079 222.976 102.525 222.976H145.733C146.18 222.976 146.542 222.614 146.542 222.167V222.166C146.542 221.72 146.18 221.358 145.733 221.358Z" fill="#333333"/>
<path d="M145.733 231.469H102.525C102.079 231.469 101.717 231.831 101.717 232.277V232.278C101.717 232.725 102.079 233.087 102.525 233.087H145.733C146.18 233.087 146.542 232.725 146.542 232.278V232.277C146.542 231.831 146.18 231.469 145.733 231.469Z" fill="#333333"/>
<path d="M145.733 241.579H102.525C102.079 241.579 101.717 241.941 101.717 242.388V242.389C101.717 242.835 102.079 243.197 102.525 243.197H145.733C146.18 243.197 146.542 242.835 146.542 242.389V242.388C146.542 241.941 146.18 241.579 145.733 241.579Z" fill="#333333"/>
<path d="M81.6692 199.114H67.109C66.6625 199.114 66.3005 199.475 66.3005 199.922V199.923C66.3005 200.369 66.6625 200.731 67.109 200.731H81.6692C82.1157 200.731 82.4776 200.369 82.4776 199.923V199.922C82.4776 199.475 82.1157 199.114 81.6692 199.114Z" fill="#333333"/>
<path d="M117.894 199.114H103.334C102.887 199.114 102.526 199.475 102.526 199.922V199.923C102.526 200.369 102.887 200.731 103.334 200.731H117.894C118.341 200.731 118.703 200.369 118.703 199.923V199.922C118.703 199.475 118.341 199.114 117.894 199.114Z" fill="#333333"/>
<path d="M94.0733 43.8113H64.8708C62.5483 43.8113 60.6656 45.694 60.6656 48.0164V58.2107C60.6656 60.5331 62.5483 62.4158 64.8708 62.4158H94.0733C96.3957 62.4158 98.2784 60.5331 98.2784 58.2107V48.0164C98.2784 45.694 96.3957 43.8113 94.0733 43.8113Z" fill="#E6E6E6"/>
<path d="M89.2205 38.9888H60.018C57.6956 38.9888 55.8129 40.8715 55.8129 43.1939V53.3882C55.8129 55.7106 57.6956 57.5933 60.018 57.5933H89.2205C91.5429 57.5933 93.4256 55.7106 93.4256 53.3882V43.1939C93.4256 40.8715 91.5429 38.9888 89.2205 38.9888Z" fill="white"/>
<path d="M89.2205 39.5144H60.018C57.9859 39.5144 56.3385 41.1618 56.3385 43.1939V53.3882C56.3385 55.4203 57.9859 57.0676 60.018 57.0676H89.2205C91.2526 57.0676 92.8999 55.4203 92.8999 53.3882V43.1939C92.8999 41.1618 91.2526 39.5144 89.2205 39.5144Z" stroke="#333333" stroke-linecap="round"/>
<path d="M69.551 46.9155H86.5607" stroke="black" stroke-width="2" stroke-linecap="round"/>
<path d="M69.551 49.8652H78.2104" stroke="black" stroke-width="2" stroke-linecap="round"/>
<path d="M64.9128 50.9609C66.3649 50.9609 67.5421 49.7837 67.5421 48.3316C67.5421 46.8795 66.3649 45.7024 64.9128 45.7024C63.4607 45.7024 62.2836 46.8795 62.2836 48.3316C62.2836 49.7837 63.4607 50.9609 64.9128 50.9609Z" fill="#FF4D4D"/>
<path d="M237.609 33.9743C239.061 33.9743 240.238 32.7972 240.238 31.3451C240.238 29.893 239.061 28.7158 237.609 28.7158C236.157 28.7158 234.979 29.893 234.979 31.3451C234.979 32.7972 236.157 33.9743 237.609 33.9743Z" fill="#FF4D4D"/>
<defs>
<filter id="filter0_d" x="5.66699" y="236.66" width="19.7278" height="19.7278" filterUnits="userSpaceOnUse" color-interpolation-filters="sRGB">
<feFlood flood-opacity="0" result="BackgroundImageFix"/>
<feColorMatrix in="SourceAlpha" type="matrix" values="0 0 0 0 0 0 0 0 0 0 0 0 0 0 0 0 0 0 127 0"/>
<feOffset dy="4"/>
<feGaussianBlur stdDeviation="4"/>
<feColorMatrix type="matrix" values="0 0 0 0 0 0 0 0 0 0 0 0 0 0 0 0 0 0 0.102 0"/>
<feBlend mode="normal" in2="BackgroundImageFix" result="effect1_dropShadow"/>
<feBlend mode="normal" in="SourceGraphic" in2="effect1_dropShadow" result="shape"/>
</filter>
<linearGradient id="paint0_linear" x1="87.8171" y1="162.307" x2="124.263" y2="241.03" gradientUnits="userSpaceOnUse">
<stop stop-color="#FFF6CC"/>
<stop offset="1" stop-color="#FFD717"/>
</linearGradient>
<linearGradient id="paint1_linear" x1="128.809" y1="153.499" x2="106.103" y2="143.521" gradientUnits="userSpaceOnUse">
<stop stop-color="#FF4D4D"/>
<stop offset="0.41" stop-color="#FFB7B7"/>
<stop offset="1" stop-color="#FFE5E6"/>
</linearGradient>
<linearGradient id="paint2_linear" x1="114.667" y1="123.371" x2="155.931" y2="146.352" gradientUnits="userSpaceOnUse">
<stop stop-color="#FFE6E6"/>
<stop offset="1" stop-color="#FF4D4D"/>
</linearGradient>
<linearGradient id="paint3_linear" x1="118.53" y1="113.105" x2="110.068" y2="106.537" gradientUnits="userSpaceOnUse">
<stop stop-color="#FF4D4D"/>
<stop offset="1" stop-color="#333333"/>
</linearGradient>
<linearGradient id="paint4_linear" x1="204.975" y1="204.999" x2="184.095" y2="229.427" gradientUnits="userSpaceOnUse">
<stop stop-color="#FFF8D9"/>
<stop offset="1" stop-color="#EEFFD9"/>
</linearGradient>
<linearGradient id="paint5_linear" x1="255.639" y1="71.4314" x2="306.323" y2="113.84" gradientUnits="userSpaceOnUse">
<stop stop-color="#FFE5E6"/>
<stop offset="1" stop-color="#FF4D4D"/>
</linearGradient>
</defs>
</svg>
